<svg width="1024" height="1024" viewBox="0 0 1024 1024" fill="none" xmlns="http://www.w3.org/2000/svg">
<rect width="1024" height="1024" rx="256" fill="#0021FF"/>
<circle cx="512" cy="512" r="385" fill="#001184"/>
<path d="M512.631 463.288C539.254 463.625 560.721 485.299 560.721 512.001C560.721 538.703 539.255 560.378 512.631 560.715L512.001 560.719C485.088 560.718 463.283 538.914 463.283 512.001C463.283 485.088 485.088 463.284 512.001 463.283L512.631 463.288Z" fill="white"/>
<path fill-rule="evenodd" clip-rule="evenodd" d="M787.773 236.229C863.513 311.969 901.586 411.11 901.996 510.379L902 512.593C901.999 513.176 901.999 513.758 901.995 514.34L901.999 512.994C901.996 514.267 901.987 515.538 901.972 516.809C900.769 615.01 862.703 712.844 787.773 787.773C635.469 940.078 388.534 940.078 236.229 787.773C83.9238 635.468 83.9238 388.533 236.229 236.229C388.534 83.9238 635.469 83.9238 787.773 236.229ZM793.988 413.831C775.62 422.929 742.976 438.398 718.74 449.813C703.904 456.8 696.486 460.294 692.68 466.823C688.873 473.352 689.495 481.642 690.74 498.222C691.22 504.621 691.568 509.957 691.568 512.002C691.568 611.164 611.163 691.569 512.001 691.569C507.337 691.569 501.146 691.689 494.846 691.854C481.31 692.208 474.542 692.385 468.932 695.879C463.322 699.374 460.13 705.461 453.748 717.636C438.6 746.529 415.472 790.671 414.028 793.587C405.517 810.781 401.262 819.378 405.882 829.799C406.069 830.223 406.403 830.909 406.62 831.319C411.952 841.394 422.089 843.524 442.362 847.784C461.22 851.746 485.208 855.147 512.001 855.147C701.52 855.146 855.148 701.521 855.148 512.002C855.148 485.161 852.084 459.068 846.274 434.048C843.741 424.257 842.474 419.362 840.165 415.92C835.406 408.826 827.273 404.749 818.741 405.183C814.602 405.394 809.922 407.309 800.563 411.14L793.988 413.831ZM589.959 177.731C589.959 177.731 589.958 177.73 589.958 177.73C589.957 177.729 589.957 177.729 589.956 177.729C564.937 171.919 538.842 168.858 512.001 168.858C322.483 168.859 168.857 322.484 168.857 512.002C168.857 538.843 171.919 564.936 177.729 589.956C177.85 590.717 177.978 591.467 178.112 592.207C180.434 605.012 181.595 611.415 192.017 616.945C202.439 622.475 209.85 619.202 224.671 612.658C226.594 611.809 228.374 610.986 229.931 610.216L303.414 577.85C317.499 571.646 324.541 568.544 328.49 562.491C332.438 556.437 332.438 548.744 332.438 533.358C332.438 527.421 332.438 520.372 332.438 512.002C332.438 412.843 412.836 332.44 511.994 332.436L523.52 332.429C525.608 332.426 528.359 332.424 531.41 332.423C545.199 332.42 552.093 332.418 557.922 328.862C563.751 325.305 566.72 319.537 572.658 308C585.77 282.524 597.352 255.905 609.899 230.572L617.899 209.338C621.958 198.563 616.402 186.537 605.517 182.786C598.624 180.41 592.076 178.223 589.959 177.731ZM635.859 464.276C628.27 444.547 615.845 426.748 600.063 412.72L600.022 412.68L599.882 412.56L597.666 410.644L597.644 410.626L596.523 409.689C572.874 390.163 542.713 379.29 512 379.29C438.712 379.292 379.291 438.711 379.29 512C379.29 530.856 383.34 549.665 391.117 566.827L391.157 566.914L391.168 566.938C405.429 598.247 432.22 623.433 464.277 635.845L464.449 635.912L464.56 635.956L464.673 635.994L464.845 636.053L464.866 636.06L475.076 639.476L475.107 639.485L475.276 639.541L475.378 639.574L475.482 639.604L475.657 639.653C487.191 642.931 499.379 644.711 512.001 644.711C585.291 644.711 644.711 585.291 644.711 512.001C644.711 495.16 641.558 479.063 635.859 464.276ZM778.461 796.781C778.463 796.779 778.466 796.777 778.468 796.775L778.904 796.365C778.756 796.503 778.609 796.642 778.461 796.781ZM778.904 796.365L780.054 795.283L780.299 795.049C779.835 795.488 779.37 795.927 778.904 796.365Z" fill="white"/>
<path d="M901.999 510.936C901.998 510.75 901.997 510.564 901.996 510.379L901.994 509.543L901.999 510.936Z" fill="white"/>
</svg>
