<svg width="1024" height="1024" viewBox="0 0 1024 1024" fill="none" xmlns="http://www.w3.org/2000/svg">
<path d="M0 256C0 114.615 114.615 0 256 0H768C909.385 0 1024 114.615 1024 256V768C1024 909.385 909.385 1024 768 1024H256C114.615 1024 0 909.385 0 768V256Z" fill="#00205D"/>
<path d="M614.456 781.912C715 781.912 796.911 700.32 796.911 599.456C796.911 498.913 715 417 614.456 417C513.591 417 432 498.913 432 599.456C432 700.32 513.591 781.912 614.456 781.912ZM614.456 735.976C538.968 735.976 477.935 674.944 477.935 599.456C477.935 523.968 538.968 462.935 614.456 462.935C689.944 462.935 750.976 523.968 750.976 599.456C750.976 674.944 690.265 735.976 614.456 735.976Z" fill="white" fill-opacity="0.75"/>
<path fill-rule="evenodd" clip-rule="evenodd" d="M512.123 508.624C522.313 497.189 534.402 487.484 547.898 480C575.623 512.014 592.425 553.729 592.425 599.266C592.425 645.035 575.56 686.835 547.741 718.844C534.254 711.342 522.177 701.62 512 690.17C533.486 666.043 546.49 634.203 546.49 599.266C546.49 564.456 533.512 532.719 512.123 508.624Z" fill="white" fill-opacity="0.5"/>
<path fill-rule="evenodd" clip-rule="evenodd" d="M410.777 781.912C448.525 781.912 483.528 770.484 512.554 750.896C499.188 741.894 487.082 731.167 476.554 719.034C457.049 729.833 434.624 735.976 410.777 735.976C334.968 735.976 273.935 674.944 273.935 599.456C273.935 523.968 334.968 462.935 410.777 462.935C434.656 462.935 457.109 469.095 476.631 479.92C487.123 467.834 499.179 457.137 512.484 448.149C483.435 428.491 448.435 417 410.777 417C309.912 417 228 498.913 228 599.456C228 700.32 309.912 781.912 410.777 781.912Z" fill="white" fill-opacity="0.5"/>
<path d="M512.777 606.912C613.321 606.912 695.232 524.999 695.232 424.135C695.232 323.592 613.321 242 512.777 242C411.912 242 330 323.592 330 424.135C330 524.999 411.912 606.912 512.777 606.912ZM512.777 560.977C437.289 560.977 376.256 499.944 376.256 424.135C376.256 348.968 437.289 287.935 512.777 287.935C587.943 287.935 648.976 348.968 648.976 424.135C648.976 499.944 587.943 560.977 512.777 560.977Z" fill="white"/>
</svg>
