<svg width="780" height="780" viewBox="0 0 780 780" fill="none" xmlns="http://www.w3.org/2000/svg">
<circle cx="390" cy="390" r="385" fill="#001184"/>
<path d="M390.631 341.288C417.254 341.625 438.721 363.299 438.721 390.001C438.721 416.703 417.255 438.378 390.631 438.715L390.001 438.719C363.088 438.718 341.283 416.914 341.283 390.001C341.283 363.088 363.088 341.284 390.001 341.283L390.631 341.288Z" fill="white"/>
<path fill-rule="evenodd" clip-rule="evenodd" d="M665.773 114.229C741.513 189.969 779.586 289.11 779.996 388.379L780 390.593C779.999 391.176 779.999 391.758 779.995 392.34L779.999 390.994C779.996 392.267 779.987 393.538 779.972 394.809C778.769 493.01 740.703 590.844 665.773 665.773C513.469 818.078 266.534 818.078 114.229 665.773C-38.0762 513.468 -38.0762 266.533 114.229 114.229C266.534 -38.0762 513.469 -38.0762 665.773 114.229ZM671.988 291.831C653.62 300.929 620.976 316.398 596.74 327.813C581.904 334.8 574.486 338.294 570.68 344.823C566.873 351.352 567.495 359.642 568.74 376.222C569.22 382.621 569.568 387.957 569.568 390.002C569.568 489.164 489.163 569.569 390.001 569.569C385.337 569.569 379.146 569.689 372.846 569.854C359.31 570.208 352.542 570.385 346.932 573.879C341.322 577.374 338.13 583.461 331.748 595.636C316.6 624.529 293.472 668.671 292.028 671.587C283.517 688.781 279.262 697.378 283.882 707.799C284.069 708.223 284.403 708.909 284.62 709.319C289.952 719.394 300.089 721.524 320.362 725.784C339.22 729.746 363.208 733.147 390.001 733.147C579.52 733.146 733.148 579.521 733.148 390.002C733.148 363.161 730.084 337.068 724.274 312.048C721.741 302.257 720.474 297.362 718.165 293.92C713.406 286.826 705.273 282.749 696.741 283.183C692.602 283.394 687.922 285.309 678.563 289.14L671.988 291.831ZM467.959 55.7309C467.959 55.7308 467.958 55.7304 467.958 55.7299C467.957 55.7293 467.957 55.7289 467.956 55.7287C442.937 49.9191 416.842 46.8581 390.001 46.858C200.483 46.8588 46.8567 200.484 46.8567 390.002C46.8568 416.843 49.9187 442.936 55.7285 467.956C55.8498 468.717 55.9777 469.467 56.1118 470.207C58.4339 483.012 59.595 489.415 70.017 494.945C80.439 500.475 87.8495 497.202 102.671 490.658C104.594 489.809 106.374 488.986 107.931 488.216L181.414 455.85C195.499 449.646 202.541 446.544 206.49 440.491C210.438 434.437 210.438 426.744 210.438 411.358C210.438 405.421 210.438 398.372 210.438 390.002C210.438 290.843 290.836 210.44 389.994 210.436L401.52 210.429C403.608 210.426 406.359 210.424 409.41 210.423C423.199 210.42 430.093 210.418 435.922 206.862C441.751 203.305 444.72 197.537 450.658 186C463.77 160.524 475.352 133.905 487.899 108.572L495.899 87.3376C499.958 76.5632 494.402 64.5373 483.517 60.7859C476.624 58.4105 470.076 56.2229 467.959 55.7309ZM513.859 342.276C506.27 322.547 493.845 304.748 478.063 290.72L478.022 290.68L477.882 290.56L475.666 288.644L475.644 288.626L474.523 287.689C450.874 268.163 420.713 257.29 390 257.29C316.712 257.292 257.291 316.711 257.29 390C257.29 408.856 261.34 427.665 269.117 444.827L269.157 444.914L269.168 444.938C283.429 476.247 310.22 501.433 342.277 513.845L342.449 513.912L342.56 513.956L342.673 513.994L342.845 514.053L342.866 514.06L353.076 517.476L353.107 517.485L353.276 517.541L353.378 517.574L353.482 517.604L353.657 517.653C365.191 520.931 377.379 522.711 390.001 522.711C463.291 522.711 522.711 463.291 522.711 390.001C522.711 373.16 519.558 357.063 513.859 342.276ZM656.461 674.781C656.463 674.779 656.466 674.777 656.468 674.775L656.904 674.365C656.756 674.503 656.609 674.642 656.461 674.781ZM656.904 674.365L658.054 673.283L658.299 673.049C657.835 673.488 657.37 673.927 656.904 674.365Z" fill="white"/>
<path d="M779.999 388.936C779.998 388.75 779.997 388.564 779.996 388.379L779.994 387.543L779.999 388.936Z" fill="white"/>
</svg>
