<svg width="166" height="61" viewBox="0 0 166 61" fill="none" xmlns="http://www.w3.org/2000/svg">
<path d="M149 0C151.787 0 153.181 0.000483736 154.345 0.198242C160.21 1.19484 164.805 5.78973 165.802 11.6553C166 12.8194 166 14.213 166 17C166 19.787 166 21.1806 165.802 22.3447C164.805 28.2103 160.21 32.8052 154.345 33.8018C153.181 33.9995 151.787 34 149 34H87C84.213 34 82.8194 33.9995 81.6553 33.8018C75.7897 32.8052 71.1948 28.2103 70.1982 22.3447C70.0998 21.7652 70.0506 21.4755 69.9955 21.3555C69.7655 20.8552 69.356 20.6637 68.8246 20.8081C68.6972 20.8428 68.4703 20.975 68.0165 21.2396C67.5163 21.5313 66.9689 21.8433 66.374 22.1816L61.1279 25.166C57.5034 27.2279 55.6906 28.259 54.3379 27.459C53.4997 26.9632 53.1808 25.9559 53.0596 24.2607C52.9178 22.2775 52.8474 21.2852 52.2236 20.75C51.5999 20.2148 50.7617 20.291 49.0859 20.4434C47.2676 20.6087 45.2012 20.9947 42.998 21.8936C39.6609 23.2553 35.8329 25.8777 32.2002 31.0967C31.287 32.4086 30.8301 33.0647 30.8301 33.999C30.8301 34.9335 31.2868 35.5901 32.2002 36.9023C35.8329 42.1215 39.6608 44.7427 42.998 46.1045C45.2013 47.0034 47.2676 47.3894 49.0859 47.5547C50.7616 47.707 51.5999 47.7832 52.2236 47.248C52.8471 46.7129 52.9177 45.7211 53.0596 43.7383C53.1808 42.0438 53.4998 41.0368 54.3379 40.541C55.6906 39.741 57.5033 40.772 61.1279 42.834L66.374 45.8184C70.1241 47.9517 71.9997 49.0191 72 50.6348C71.9997 52.2504 70.1241 53.3178 66.374 55.4512L61.1279 58.4355C57.5037 60.4973 55.6906 61.529 54.3379 60.7295C53.4995 60.2336 53.1807 59.2247 53.0596 57.5283C52.9265 55.6642 52.8601 54.7318 52.3477 54.2129C51.8349 53.694 50.9175 53.6243 49.084 53.4863C46.7533 53.311 43.8796 52.8409 40.8037 51.5859C35.5622 49.4472 29.9758 45.1469 25.2021 36.8008C19.7649 27.2943 15.2459 23.4068 11.5117 21.7266C8.59714 20.4153 5.95654 20.3066 2.92773 20.3281C1.31083 20.3396 0 19.0297 0 17.3975C0.000380734 15.7656 1.31011 14.4193 2.92676 14.4062C6.1477 14.3804 9.93461 14.5446 13.8965 16.3271C17.0408 17.742 20.1815 20.0958 23.4121 23.8604C25.1215 25.8523 25.9767 26.8482 26.8535 26.8594C27.7304 26.8703 28.6281 25.8753 30.4229 23.8857C33.8154 20.125 37.3831 17.8088 40.8037 16.4131C43.8796 15.1581 46.7532 14.6871 49.084 14.5117C50.9169 14.3738 51.8339 14.3046 52.3467 13.7861C52.8594 13.2673 52.9263 12.3345 53.0596 10.4697C53.1807 8.77442 53.4997 7.76732 54.3379 7.27148C55.6906 6.47154 57.5035 7.50162 61.1279 9.56348L66.374 12.5488C66.7257 12.7489 67.0608 12.9396 67.3794 13.1224C68.2949 13.6475 68.7527 13.91 69.0685 13.8804C69.3311 13.8557 69.4981 13.7769 69.6841 13.5899C69.9078 13.365 70.0046 12.7951 70.1982 11.6553C71.1948 5.78973 75.7897 1.19484 81.6553 0.198242C82.8194 0.000483736 84.213 0 87 0H149Z" fill="white"/>
<path d="M86.3466 11.0902C86.1298 10.9699 85.8699 10.9699 85.6532 11.0902C85.628 11.1042 85.5292 11.1763 85.3316 11.5179C85.1399 11.8495 84.9171 12.3199 84.5924 13.0075C84.4227 13.367 84.281 13.6822 84.0629 13.937C83.8527 14.1824 83.595 14.3785 83.3067 14.5116C83.0076 14.6498 82.677 14.693 82.2975 14.7507C81.5717 14.8609 81.0749 14.9373 80.714 15.0254C80.342 15.1163 80.2459 15.1922 80.2254 15.2129C80.0489 15.3912 79.9687 15.6496 80.0112 15.9023C80.0161 15.9316 80.0512 16.0522 80.3009 16.3542C80.5434 16.6472 80.9024 17.0142 81.4276 17.5493C81.7022 17.8292 81.9452 18.0675 82.1095 18.3631C82.2679 18.6479 82.3665 18.9648 82.3986 19.2925C82.4318 19.6326 82.369 19.9748 82.3042 20.3699C82.1802 21.1256 82.0961 21.643 82.0647 22.0291C82.0324 22.4273 82.072 22.5462 82.0845 22.5728C82.1922 22.8033 82.4023 22.9629 82.6453 22.9988C82.6733 23.0029 82.7937 23.0055 83.1459 22.8503C83.4874 22.6999 83.9322 22.4563 84.5814 22.0995C84.9209 21.9129 85.2129 21.7448 85.5326 21.6728C85.8406 21.6034 86.1594 21.6033 86.4674 21.6728C86.7871 21.7448 87.0789 21.9129 87.4184 22.0995C88.0676 22.4563 88.5123 22.6999 88.8539 22.8503C89.2062 23.0055 89.3267 23.0029 89.3547 22.9988C89.5977 22.9628 89.8078 22.8033 89.9155 22.5728C89.928 22.5462 89.9676 22.4273 89.9353 22.0291C89.9039 21.643 89.8195 21.1256 89.6956 20.3699C89.6307 19.9748 89.5682 19.6326 89.6014 19.2925C89.6335 18.9648 89.7319 18.6479 89.8903 18.3631C90.0546 18.0675 90.2977 17.8292 90.5724 17.5493C91.0976 17.0141 91.4567 16.6472 91.6991 16.3542C91.9489 16.0522 91.9839 15.9316 91.9888 15.9023C92.0313 15.6496 91.9511 15.3912 91.7746 15.2129C91.7543 15.1923 91.6583 15.1163 91.286 15.0254C90.9251 14.9373 90.4284 14.8609 89.7025 14.7507C89.323 14.693 88.9924 14.6497 88.6933 14.5116C88.405 14.3785 88.1471 14.1824 87.9368 13.937C87.7188 13.6822 87.577 13.367 87.4073 13.0075C87.0827 12.3199 86.8599 11.8495 86.6682 11.5179C86.4704 11.176 86.3716 11.1041 86.3466 11.0902Z" fill="#FFD500"/>
<path d="M102.347 11.0902C102.13 10.9699 101.87 10.9699 101.653 11.0902C101.628 11.1042 101.529 11.1763 101.332 11.5179C101.14 11.8495 100.917 12.3199 100.592 13.0075C100.423 13.367 100.281 13.6822 100.063 13.937C99.8527 14.1824 99.595 14.3785 99.3067 14.5116C99.0076 14.6498 98.677 14.693 98.2975 14.7507C97.5717 14.8609 97.0749 14.9373 96.714 15.0254C96.342 15.1163 96.2459 15.1922 96.2254 15.2129C96.0489 15.3912 95.9687 15.6496 96.0112 15.9023C96.0161 15.9316 96.0512 16.0522 96.3009 16.3542C96.5434 16.6472 96.9024 17.0142 97.4276 17.5493C97.7022 17.8292 97.9452 18.0675 98.1095 18.3631C98.2679 18.6479 98.3665 18.9648 98.3986 19.2925C98.4318 19.6326 98.369 19.9748 98.3042 20.3699C98.1802 21.1256 98.0961 21.643 98.0647 22.0291C98.0324 22.4273 98.072 22.5462 98.0845 22.5728C98.1922 22.8033 98.4023 22.9629 98.6453 22.9988C98.6733 23.0029 98.7937 23.0055 99.1459 22.8503C99.4874 22.6999 99.9322 22.4563 100.581 22.0995C100.921 21.9129 101.213 21.7448 101.533 21.6728C101.841 21.6034 102.159 21.6033 102.467 21.6728C102.787 21.7448 103.079 21.9129 103.418 22.0995C104.068 22.4563 104.512 22.6999 104.854 22.8503C105.206 23.0055 105.327 23.0029 105.355 22.9988C105.598 22.9628 105.808 22.8033 105.916 22.5728C105.928 22.5462 105.968 22.4273 105.935 22.0291C105.904 21.643 105.82 21.1256 105.696 20.3699C105.631 19.9748 105.568 19.6326 105.601 19.2925C105.633 18.9648 105.732 18.6479 105.89 18.3631C106.055 18.0675 106.298 17.8292 106.572 17.5493C107.098 17.0141 107.457 16.6472 107.699 16.3542C107.949 16.0522 107.984 15.9316 107.989 15.9023C108.031 15.6496 107.951 15.3912 107.775 15.2129C107.754 15.1923 107.658 15.1163 107.286 15.0254C106.925 14.9373 106.428 14.8609 105.703 14.7507C105.323 14.693 104.992 14.6497 104.693 14.5116C104.405 14.3785 104.147 14.1824 103.937 13.937C103.719 13.6822 103.577 13.367 103.407 13.0075C103.083 12.3199 102.86 11.8495 102.668 11.5179C102.47 11.176 102.372 11.1041 102.347 11.0902Z" fill="#FFD500"/>
<path d="M118.347 11.0902C118.13 10.9699 117.87 10.9699 117.653 11.0902C117.628 11.1042 117.529 11.1763 117.332 11.5179C117.14 11.8495 116.917 12.3199 116.592 13.0075C116.423 13.367 116.281 13.6822 116.063 13.937C115.853 14.1824 115.595 14.3785 115.307 14.5116C115.008 14.6498 114.677 14.693 114.297 14.7507C113.572 14.8609 113.075 14.9373 112.714 15.0254C112.342 15.1163 112.246 15.1922 112.225 15.2129C112.049 15.3912 111.969 15.6496 112.011 15.9023C112.016 15.9316 112.051 16.0522 112.301 16.3542C112.543 16.6472 112.902 17.0142 113.428 17.5493C113.702 17.8292 113.945 18.0675 114.109 18.3631C114.268 18.6479 114.367 18.9648 114.399 19.2925C114.432 19.6326 114.369 19.9748 114.304 20.3699C114.18 21.1256 114.096 21.643 114.065 22.0291C114.032 22.4273 114.072 22.5462 114.084 22.5728C114.192 22.8033 114.402 22.9629 114.645 22.9988C114.673 23.0029 114.794 23.0055 115.146 22.8503C115.487 22.6999 115.932 22.4563 116.581 22.0995C116.921 21.9129 117.213 21.7448 117.533 21.6728C117.841 21.6034 118.159 21.6033 118.467 21.6728C118.787 21.7448 119.079 21.9129 119.418 22.0995C120.068 22.4563 120.512 22.6999 120.854 22.8503C121.206 23.0055 121.327 23.0029 121.355 22.9988C121.598 22.9628 121.808 22.8033 121.916 22.5728C121.928 22.5462 121.968 22.4273 121.935 22.0291C121.904 21.643 121.82 21.1256 121.696 20.3699C121.631 19.9748 121.568 19.6326 121.601 19.2925C121.633 18.9648 121.732 18.6479 121.89 18.3631C122.055 18.0675 122.298 17.8292 122.572 17.5493C123.098 17.0141 123.457 16.6472 123.699 16.3542C123.949 16.0522 123.984 15.9316 123.989 15.9023C124.031 15.6496 123.951 15.3912 123.775 15.2129C123.754 15.1923 123.658 15.1163 123.286 15.0254C122.925 14.9373 122.428 14.8609 121.703 14.7507C121.323 14.693 120.992 14.6497 120.693 14.5116C120.405 14.3785 120.147 14.1824 119.937 13.937C119.719 13.6822 119.577 13.367 119.407 13.0075C119.083 12.3199 118.86 11.8495 118.668 11.5179C118.47 11.176 118.372 11.1041 118.347 11.0902Z" fill="#FFD500"/>
<path d="M134.347 11.0902C134.13 10.9699 133.87 10.9699 133.653 11.0902C133.628 11.1042 133.529 11.1763 133.332 11.5179C133.14 11.8495 132.917 12.3199 132.592 13.0075C132.423 13.367 132.281 13.6822 132.063 13.937C131.853 14.1824 131.595 14.3785 131.307 14.5116C131.008 14.6498 130.677 14.693 130.297 14.7507C129.572 14.8609 129.075 14.9373 128.714 15.0254C128.342 15.1163 128.246 15.1922 128.225 15.2129C128.049 15.3912 127.969 15.6496 128.011 15.9023C128.016 15.9316 128.051 16.0522 128.301 16.3542C128.543 16.6472 128.902 17.0142 129.428 17.5493C129.702 17.8292 129.945 18.0675 130.109 18.3631C130.268 18.6479 130.367 18.9648 130.399 19.2925C130.432 19.6326 130.369 19.9748 130.304 20.3699C130.18 21.1256 130.096 21.643 130.065 22.0291C130.032 22.4273 130.072 22.5462 130.084 22.5728C130.192 22.8033 130.402 22.9629 130.645 22.9988C130.673 23.0029 130.794 23.0055 131.146 22.8503C131.487 22.6999 131.932 22.4563 132.581 22.0995C132.921 21.9129 133.213 21.7448 133.533 21.6728C133.841 21.6034 134.159 21.6033 134.467 21.6728C134.787 21.7448 135.079 21.9129 135.418 22.0995C136.068 22.4563 136.512 22.6999 136.854 22.8503C137.206 23.0055 137.327 23.0029 137.355 22.9988C137.598 22.9628 137.808 22.8033 137.916 22.5728C137.928 22.5462 137.968 22.4273 137.935 22.0291C137.904 21.643 137.82 21.1256 137.696 20.3699C137.631 19.9748 137.568 19.6326 137.601 19.2925C137.633 18.9648 137.732 18.6479 137.89 18.3631C138.055 18.0675 138.298 17.8292 138.572 17.5493C139.098 17.0141 139.457 16.6472 139.699 16.3542C139.949 16.0522 139.984 15.9316 139.989 15.9023C140.031 15.6496 139.951 15.3912 139.775 15.2129C139.754 15.1923 139.658 15.1163 139.286 15.0254C138.925 14.9373 138.428 14.8609 137.703 14.7507C137.323 14.693 136.992 14.6497 136.693 14.5116C136.405 14.3785 136.147 14.1824 135.937 13.937C135.719 13.6822 135.577 13.367 135.407 13.0075C135.083 12.3199 134.86 11.8495 134.668 11.5179C134.47 11.176 134.372 11.1041 134.347 11.0902Z" fill="#FFD500"/>
<path d="M150.347 11.0902C150.13 10.9699 149.87 10.9699 149.653 11.0902C149.628 11.1042 149.529 11.1763 149.332 11.5179C149.14 11.8495 148.917 12.3199 148.592 13.0075C148.423 13.367 148.281 13.6822 148.063 13.937C147.853 14.1824 147.595 14.3785 147.307 14.5116C147.008 14.6498 146.677 14.693 146.297 14.7507C145.572 14.8609 145.075 14.9373 144.714 15.0254C144.342 15.1163 144.246 15.1922 144.225 15.2129C144.049 15.3912 143.969 15.6496 144.011 15.9023C144.016 15.9316 144.051 16.0522 144.301 16.3542C144.543 16.6472 144.902 17.0142 145.428 17.5493C145.702 17.8292 145.945 18.0675 146.109 18.3631C146.268 18.6479 146.367 18.9648 146.399 19.2925C146.432 19.6326 146.369 19.9748 146.304 20.3699C146.18 21.1256 146.096 21.643 146.065 22.0291C146.032 22.4273 146.072 22.5462 146.084 22.5728C146.192 22.8033 146.402 22.9629 146.645 22.9988C146.673 23.0029 146.794 23.0055 147.146 22.8503C147.487 22.6999 147.932 22.4563 148.581 22.0995C148.921 21.9129 149.213 21.7448 149.533 21.6728C149.841 21.6034 150.159 21.6033 150.467 21.6728C150.787 21.7448 151.079 21.9129 151.418 22.0995C152.068 22.4563 152.512 22.6999 152.854 22.8503C153.206 23.0055 153.327 23.0029 153.355 22.9988C153.598 22.9628 153.808 22.8033 153.916 22.5728C153.928 22.5462 153.968 22.4273 153.935 22.0291C153.904 21.643 153.82 21.1256 153.696 20.3699C153.631 19.9748 153.568 19.6326 153.601 19.2925C153.633 18.9648 153.732 18.6479 153.89 18.3631C154.055 18.0675 154.298 17.8292 154.572 17.5493C155.098 17.0141 155.457 16.6472 155.699 16.3542C155.949 16.0522 155.984 15.9316 155.989 15.9023C156.031 15.6496 155.951 15.3912 155.775 15.2129C155.754 15.1923 155.658 15.1163 155.286 15.0254C154.925 14.9373 154.428 14.8609 153.703 14.7507C153.323 14.693 152.992 14.6497 152.693 14.5116C152.405 14.3785 152.147 14.1824 151.937 13.937C151.719 13.6822 151.577 13.367 151.407 13.0075C151.083 12.3199 150.86 11.8495 150.668 11.5179C150.47 11.176 150.372 11.1041 150.347 11.0902Z" fill="#FFD500"/>
</svg>
