<svg width="104" height="62" viewBox="0 0 104 62" fill="none" xmlns="http://www.w3.org/2000/svg">
<path d="M14 0C17.7712 0 19.6566 0.000302149 20.8281 1.17188C21.9997 2.34345 22 4.22876 22 8V12C22 15.7712 22.0003 17.6566 23.1719 18.8281C24.3434 19.9997 26.2288 20 30 20H34C37.7712 20 39.6566 20.0003 40.8281 21.1719C41.9997 22.3434 42 24.2288 42 28V34C42 37.7712 41.9997 39.6566 40.8281 40.8281C39.6566 41.9997 37.7712 42 34 42H30C26.2288 42 24.3434 42.0003 23.1719 43.1719C22.0003 44.3434 22 46.2288 22 50V54C22 57.7712 21.9997 59.6566 20.8281 60.8281C19.6566 61.9997 17.7712 62 14 62H8C4.22876 62 2.34345 61.9997 1.17188 60.8281C0.000302149 59.6566 0 57.7712 0 54V48C0 44.2288 0.000302149 42.3434 1.17188 41.1719C2.34345 40.0003 4.22876 40 8 40H12C15.7712 40 17.6566 39.9997 18.8281 38.8281C19.9997 37.6566 20 35.7712 20 32V30C20 26.2288 19.9997 24.3434 18.8281 23.1719C17.6566 22.0003 15.7712 22 12 22H8C4.22876 22 2.34345 21.9997 1.17188 20.8281C0.000302149 19.6566 0 17.7712 0 14V8C0 4.22876 0.000302149 2.34345 1.17188 1.17188C2.34345 0.000302149 4.22876 0 8 0H14ZM94 0C98.714 0 101.071 0.000377655 102.535 1.46484C104 2.92931 104 5.28595 104 10V12C104 16.714 104 19.0707 102.535 20.5352C101.071 21.9996 98.714 22 94 22H93C89.2505 22 87.3758 22.0003 86.0615 22.9551C85.637 23.2635 85.2635 23.637 84.9551 24.0615C84.0003 25.3758 84 27.2505 84 31C84 34.7495 84.0003 36.6242 84.9551 37.9385C85.2635 38.363 85.637 38.7365 86.0615 39.0449C87.3758 39.9997 89.2505 40 93 40H94C98.714 40 101.071 40.0004 102.535 41.4648C104 42.9293 104 45.286 104 50V52C104 56.714 104 59.0707 102.535 60.5352C101.071 61.9996 98.714 62 94 62H92C87.286 62 84.9293 61.9996 83.4648 60.5352C82.1834 59.2538 82.023 57.2894 82.0029 53.6602L81.9971 50.3398C81.977 46.7106 81.8166 44.7462 80.5352 43.4648C79.2538 42.1834 77.2894 42.023 73.6602 42.0029L70.3398 41.9971C66.7106 41.977 64.7462 41.8166 63.4648 40.5352C62.0004 39.0707 62 36.714 62 32V30C62 25.286 62.0004 22.9293 63.4648 21.4648C64.7462 20.1834 66.7106 20.023 70.3398 20.0029L73.6602 19.9971C77.2894 19.977 79.2538 19.8166 80.5352 18.5352C81.8166 17.2538 81.977 15.2894 81.9971 11.6602L82.0029 8.33984C82.023 4.71064 82.1834 2.74625 83.4648 1.46484C84.9293 0.000377655 87.286 0 92 0H94Z" fill="white"/>
</svg>
