<svg width="128" height="128" viewBox="0 0 128 128" fill="none" xmlns="http://www.w3.org/2000/svg">
<mask id="mask0_2052_2256" style="mask-type:alpha" maskUnits="userSpaceOnUse" x="0" y="0" width="128" height="128">
<path d="M96.75 0C114.009 0 128 13.9911 128 31.25V96.75C128 114.009 114.009 128 96.75 128H31.25C13.9911 128 0 114.009 0 96.75V31.25C0 13.9911 13.9911 0 31.25 0H96.75Z" fill="url(#paint0_linear_2052_2256)"/>
</mask>
<g mask="url(#mask0_2052_2256)">
<path d="M96.75 0C114.009 0 128 13.9911 128 31.25V96.75C128 114.009 114.009 128 96.75 128H31.25C13.9911 128 -7.62939e-06 114.009 -7.62939e-06 96.75V31.25C-7.62939e-06 13.9911 13.9911 0 31.25 0L96.75 0Z" fill="#2B87FF"/>
</g>
<path fill-rule="evenodd" clip-rule="evenodd" d="M63.511 50.9474C70.7235 50.9474 77.0344 54.8033 80.4977 60.5633C80.5558 60.66 80.6674 60.7109 80.7782 60.6898C87.1568 59.4745 94.4476 58.8374 102.897 58.8374L102.977 58.8384C104.653 58.8809 105.999 60.2534 105.999 61.9403C105.999 63.6272 104.653 64.9998 102.977 65.0423L102.897 65.0433C83.7603 65.0433 71.534 68.4335 62.5582 73.9265L62.3468 74.0567C53.5925 79.4771 47.615 87.0961 41.2361 96.4709L40.6175 97.3837C39.6734 98.7815 37.7898 99.1654 36.3769 98.262L36.31 98.218C34.8902 97.2587 34.5167 95.3299 35.4758 93.9098L36.1209 92.9579C39.2183 88.4052 42.3466 84.0702 45.8523 80.1176C45.9261 80.0344 45.9407 79.9144 45.8898 79.8155C44.5154 77.1459 43.7296 74.1239 43.7037 70.9224L43.703 70.7585C43.703 59.8172 52.5714 50.9474 63.511 50.9474ZM63.511 57.1533C55.9983 57.1533 49.9079 63.2446 49.9079 70.7585L49.9091 70.9363C49.9264 72.2882 50.1408 73.5917 50.5245 74.82C50.5818 75.0033 50.8098 75.0611 50.952 74.9319C53.4192 72.6895 56.0997 70.6259 59.0807 68.7802L59.2961 68.6474C63.4965 66.0739 68.2383 63.9614 73.7423 62.3646C73.9254 62.3115 73.9965 62.0892 73.8729 61.9439C71.377 59.0118 67.6611 57.1533 63.511 57.1533Z" fill="#FFD900"/>
<path d="M36.4444 67.6565C38.1209 67.699 39.467 69.0716 39.467 70.7585L39.4659 70.8386C39.4241 72.4887 38.0943 73.8186 36.4444 73.8604L36.3644 73.8615H25.2274C23.5408 73.8615 22.1685 72.5153 22.126 70.8386L22.125 70.7585C22.125 69.0449 23.5139 67.6555 25.2274 67.6555H36.3644L36.4444 67.6565Z" fill="#FFD900"/>
<path d="M34.338 41.3516C35.5534 40.196 37.4756 40.2147 38.6683 41.4075L46.5433 49.2839L46.5992 49.3412C47.7363 50.5375 47.7363 52.4184 46.5992 53.6148L46.5433 53.672C45.3506 54.8649 43.4286 54.8835 42.2131 53.728L42.1559 53.672L34.2807 45.7958C33.0691 44.584 33.0691 42.6193 34.2807 41.4075L34.338 41.3516Z" fill="#FFD900"/>
<path d="M88.6431 41.3517C89.8586 40.1961 91.7806 40.2148 92.9733 41.4077L93.0293 41.4649C94.1847 42.6806 94.166 44.6029 92.9733 45.7958L85.0983 53.672C83.9056 54.8649 81.9836 54.8836 80.7681 53.728L80.7109 53.672C79.4993 52.4602 79.4993 50.4957 80.7109 49.2839L88.5859 41.4077L88.6431 41.3517Z" fill="#FFD900"/>
<path d="M63.7071 29.251C65.3835 29.2935 66.7295 30.666 66.7295 32.3529V43.4917L66.7285 43.5717C66.6867 45.2218 65.357 46.5519 63.7071 46.5937L63.6271 46.5947C61.9404 46.5947 60.568 45.2484 60.5256 43.5717L60.5245 43.4917V32.3529C60.5245 30.6392 61.9137 29.25 63.6271 29.25L63.7071 29.251Z" fill="#FFD900"/>
<path d="M102.875 58.75C104.669 58.75 106.125 60.2051 106.125 62C106.125 63.7949 104.669 65.25 102.875 65.25C83.8705 65.25 71.7558 68.5603 62.7987 74.045C53.7998 79.5554 47.6249 87.4678 40.8152 97.5114C39.8079 98.997 37.7871 99.3847 36.3014 98.3774C34.8158 97.3702 34.4281 95.3493 35.4353 93.8636C42.313 83.7198 49.138 74.7883 59.4045 68.5018C69.7128 62.1897 83.1291 58.75 102.875 58.75Z" fill="white"/>
<defs>
<linearGradient id="paint0_linear_2052_2256" x1="128" y1="64" x2="0" y2="64" gradientUnits="userSpaceOnUse">
<stop stop-color="#42A2F4"/>
<stop offset="0.458333" stop-color="#3B8AEF"/>
<stop offset="1" stop-color="#3370E9"/>
</linearGradient>
</defs>
</svg>
