<svg width="128" height="128" viewBox="0 0 128 128" fill="none" xmlns="http://www.w3.org/2000/svg">
<path d="M0 32C0 14.3269 14.3269 0 32 0H96C113.673 0 128 14.3269 128 32V96C128 113.673 113.673 128 96 128H32C14.3269 128 0 113.673 0 96V32Z" fill="#0074A9"/>
<path d="M100.546 51.6819C101.176 52.1549 101.546 52.8971 101.545 53.6847L101.495 85.2139C101.494 86.2017 100.911 87.096 100.007 87.4959L65.0344 102.98C64.3899 103.265 63.6548 103.265 63.0102 102.98L28.0372 87.4959C27.134 87.096 26.5509 86.2017 26.5493 85.2139L26.5 53.6847C26.4988 52.8971 26.8688 52.1549 27.4986 51.6819L62.5209 25.3761C63.4104 24.708 64.6343 24.708 65.5238 25.3761L100.546 51.6819Z" fill="white"/>
<path d="M88.76 87.1208C89.8041 87.1928 90.05 88.6174 89.0905 89.0353L67.2963 98.5263C66.6358 98.8139 65.897 98.3299 65.897 97.6095V86.6152C65.897 86.0358 66.3878 85.5777 66.9658 85.6176L88.76 87.1208Z" fill="#43C3FF"/>
<path d="M62.147 97.5862C62.147 98.3063 61.4088 98.7904 60.7484 98.5033L38.9643 89.0342C38.0041 88.6169 38.2497 87.1915 39.2942 87.1195L61.0782 85.6175C61.6562 85.5777 62.147 86.0358 62.147 86.6152V97.5862Z" fill="#43C3FF"/>
<path d="M60.0794 80.4824C60.4517 81.1228 60.0227 81.9316 59.2837 81.9826L32.2609 83.8462C31.5212 83.8972 30.9852 83.1538 31.2672 82.4681L42.9142 54.1543C43.2295 53.3877 44.287 53.3155 44.7035 54.0321L60.0794 80.4824Z" fill="#43C3FF"/>
<path d="M96.7768 82.4681C97.0588 83.1538 96.5228 83.8972 95.7832 83.8462L68.7612 81.9826C68.0222 81.9316 67.5932 81.1228 67.9655 80.4824L83.3405 54.0322C83.7571 53.3156 84.8145 53.3878 85.1299 54.1543L96.7768 82.4681Z" fill="#43C3FF"/>
<path d="M79.6503 49.9276C80.4214 49.9276 80.9024 50.7635 80.5149 51.4302L64.8866 78.3172C64.501 78.9805 63.543 78.9805 63.1575 78.3172L47.5292 51.4302C47.1417 50.7635 47.6226 49.9276 48.3937 49.9276H79.6503Z" fill="#43C3FF"/>
<path d="M31.4356 72.2023C31.0167 73.2205 29.5001 72.9132 29.5108 71.8122L29.6723 55.1484C29.6764 54.7194 29.9538 54.3409 30.3616 54.2076L38.0941 51.6808C38.905 51.4158 39.6541 52.2227 39.3295 53.0118L31.4356 72.2023Z" fill="#43C3FF"/>
<path d="M97.6834 54.2076C98.0912 54.3409 98.3686 54.7194 98.3727 55.1484L98.5342 71.8122C98.5449 72.9132 97.0283 73.2205 96.6094 72.2023L88.7155 53.0118C88.3909 52.2227 89.14 51.4158 89.9509 51.6808L97.6834 54.2076Z" fill="#43C3FF"/>
<path d="M42.4878 46.2753C42.4116 46.3574 42.314 46.4173 42.2066 46.4491L39.2357 47.3296C38.697 47.4893 38.3452 46.7762 38.7996 46.4458L45.4763 41.5922C45.9653 41.2367 46.548 41.8929 46.137 42.3365L42.4878 46.2753Z" fill="#43C3FF"/>
<path d="M89.2444 46.4458C89.6989 46.7762 89.347 47.4893 88.8083 47.3296L85.8374 46.4491C85.73 46.4173 85.6324 46.3574 85.5562 46.2753L81.907 42.3365C81.4961 41.8929 82.0787 41.2367 82.5678 41.5922L89.2444 46.4458Z" fill="#43C3FF"/>
<path d="M78.7967 44.498C79.3898 45.1381 78.9358 46.1776 78.0632 46.1776H49.9799C49.1073 46.1776 48.6533 45.1381 49.2464 44.498L63.2885 29.3442C63.6842 28.9171 64.3598 28.9172 64.7555 29.3443L78.7967 44.498Z" fill="#43C3FF"/>
</svg>
