<svg width="256" height="256" viewBox="0 0 256 256" fill="none" xmlns="http://www.w3.org/2000/svg">
<path d="M128 250C195.379 250 250 195.379 250 128C250 60.6213 195.379 6 128 6C60.6213 6 6 60.6213 6 128C6 195.379 60.6213 250 128 250Z" fill="#1d2023"/>
<path fill-rule="evenodd" clip-rule="evenodd" d="M128 256C198.692 256 256 198.692 256 128C256 57.3076 198.692 0 128 0C57.3076 0 0 57.3076 0 128C0 198.692 57.3076 256 128 256ZM247.104 128C247.104 193.779 193.779 247.104 128 247.104C62.2207 247.104 8.896 193.779 8.896 128C8.896 62.2207 62.2207 8.896 128 8.896C193.779 8.896 247.104 62.2207 247.104 128Z" fill="#1d2023"/>
<path d="M96.0032 80.2049C94.953 80.2049 94.0027 81.3791 94.4216 82.7077L98.5255 114.634C99.0034 116.15 108.207 130.031 107.124 130.666C106.022 131.312 100.982 118.631 99.999 117.314L87.1882 108.068C86.496 107.141 85.2106 107.17 84.5578 108.15L80.2369 114.634C79.4335 115.84 78.1118 116.586 76.6711 116.586H55.6855C54.5807 116.586 53.6064 117.888 54.16 119.244L62.1833 138.903C62.7782 140.361 62.6181 142.046 61.747 143.354L57.1729 150.218C56.5361 151.174 56.8541 152.483 57.7377 153.004L81.9584 167.284C84.2399 168.629 84.8584 171.73 83.3956 173.925L81.2334 177.17C80.3278 178.529 81.3355 180.171 82.5774 180.171H118.206C121.082 180.171 118.779 186.236 118.206 189L119.568 199.698C119.304 200.973 120.218 202 121.202 202H134.798C135.782 202 136.696 200.973 136.432 199.698L137.794 186C137.221 183.236 134.918 180.171 137.794 180.171H173.423C174.665 180.171 175.672 178.529 174.767 177.17L172.604 173.925C171.142 171.73 171.76 168.629 174.042 167.284L198.262 153.004C199.146 152.483 199.464 151.174 198.827 150.218L194.253 143.354C193.382 142.046 193.222 140.361 193.817 138.903L201.84 119.244C202.394 117.888 201.419 116.586 200.314 116.586H180.083C178.642 116.586 177.321 115.84 176.517 114.634L172.16 108.096C171.513 107.124 170.243 107.087 169.547 107.992L160.887 116.586C159.899 117.87 158.36 117.956 157.268 117.314C156.195 116.683 155.497 115.331 155.95 113.831L160.887 82.6844C161.287 81.3611 160.341 80.2049 159.298 80.2049H147.74C146.227 80.2049 144.853 79.3839 144.066 78.0832L129.388 53.8264C128.722 52.7245 127.278 52.7245 126.612 53.8264L111.934 78.0832C111.147 79.3839 109.773 80.2049 108.261 80.2049H96.0032Z" fill="white"/>
<path fill-rule="evenodd" clip-rule="evenodd" d="M56.6748 159.838L75.6633 170.907C72.1308 177.705 76.5892 186.64 84.6004 186.64H113.19L111.581 194.314C110.216 200.827 114.879 207.262 121.505 207.262H134.495C141.122 207.262 145.784 200.827 144.419 194.314L142.81 186.64H171.4C179.411 186.64 183.869 177.705 180.337 170.907L199.325 159.838C204.652 156.732 206.147 149.505 202.686 144.369L199.71 139.953L206.418 123.701C209.257 116.823 204.571 108.807 197.094 108.807H180.058L177.207 104.577C173.994 99.8094 167.91 98.7844 163.501 101.698L167.58 88.3508C169.637 81.6213 164.941 74.4384 157.905 74.4384H149.28L136.551 53.6381C132.553 47.1053 123.448 47.1053 119.45 53.6381L106.72 74.4384H97.4283C90.336 74.4384 85.6388 81.7252 87.7926 88.4783L91.7783 100.976C87.5583 99.0868 82.3647 100.347 79.4797 104.628L76.663 108.807H58.9061C51.4288 108.807 46.7429 116.823 49.582 123.701L56.2906 139.953L53.3144 144.369C49.8533 149.505 51.348 156.732 56.6748 159.838ZM95.9171 85.6856C95.5169 84.4305 96.4249 83.3212 97.4283 83.3212H109.14C110.584 83.3212 111.898 82.5457 112.65 81.3169L126.674 58.402C127.311 57.3611 128.69 57.3611 129.327 58.402L143.351 81.3169C144.103 82.5457 145.416 83.3212 146.861 83.3212H157.905C158.901 83.3212 159.805 84.4135 159.423 85.6636L146.402 128.266C145.968 129.683 146.635 130.961 147.661 131.557C148.704 132.163 150.174 132.082 151.119 130.869L167.696 109.571C168.362 108.716 169.575 108.751 170.194 109.669L174.357 115.846C175.124 116.985 176.387 117.69 177.764 117.69H197.094C198.15 117.69 199.081 118.92 198.552 120.201L190.886 138.773C190.317 140.15 190.47 141.742 191.303 142.977L195.673 149.461C196.281 150.364 195.978 151.601 195.133 152.093L171.991 165.583C169.811 166.854 169.22 169.783 170.618 171.857L172.684 174.922C173.549 176.206 172.586 177.757 171.4 177.757H137.358C134.61 177.757 132.744 180.407 133.292 183.018L136.056 196.204C136.309 197.408 135.435 198.379 134.495 198.379H121.505C120.565 198.379 119.691 197.408 119.944 196.204L122.709 183.018C123.256 180.407 121.39 177.757 118.642 177.757H84.6004C83.4138 177.757 82.451 176.206 83.3163 174.922L85.3822 171.857C86.7798 169.783 86.1889 166.854 84.0089 165.583L60.8669 152.093C60.0227 151.601 59.7189 150.364 60.3273 149.461L64.6976 142.977C65.53 141.742 65.6829 140.15 65.1146 138.773L57.4486 120.201C56.9196 118.92 57.8505 117.69 58.9061 117.69H78.9572C80.3337 117.69 81.5965 116.985 82.3641 115.846L86.4926 109.72C87.1163 108.795 88.3445 108.767 89.0058 109.643L104.574 130.268C105.513 131.512 107 131.601 108.054 130.991C109.089 130.391 109.762 129.096 109.306 127.665L95.9171 85.6856Z" fill="#1d2023"/>
</svg>
